<svg xmlns="http://www.w3.org/2000/svg" width="847.354" height="847.354" viewBox="0 0 847.354 847.354"><g transform="translate(-471 -1101)"><g transform="translate(-464 1467)" opacity="0.997"><path d="M 1358.676879882812 480.8544006347656 C 1344.242553710938 480.8544006347656 1329.685180664062 480.1192932128906 1315.409057617188 478.6694946289062 C 1301.340209960938 477.24072265625 1287.20361328125 475.0831604003906 1273.3916015625 472.2568359375 C 1259.759765625 469.4674987792969 1246.115234375 465.9591674804688 1232.8369140625 461.8292846679688 C 1219.710327148438 457.7465209960938 1206.62939453125 452.9588317871094 1193.95751953125 447.5991821289062 C 1168.882690429688 436.993408203125 1144.697998046875 423.8661804199219 1122.075073242188 408.5823974609375 C 1099.667114257812 393.4439392089844 1078.595581054688 376.0582885742188 1059.445922851562 356.9083862304688 C 1040.296508789062 337.7593994140625 1022.910888671875 316.6878356933594 1007.771911621094 294.279052734375 C 992.4883422851562 271.656494140625 979.361328125 247.4716186523438 968.7553100585938 222.3962860107422 C 963.3965454101562 209.7271728515625 958.6087646484375 196.6462860107422 954.5252075195312 183.5170593261719 C 950.3956909179688 170.2399444580078 946.8873291015625 156.5952911376953 944.0975341796875 142.9620666503906 C 941.2711181640625 129.1497344970703 939.1136474609375 115.0129547119141 937.6849975585938 100.9445037841797 C 936.2352294921875 86.66817474365234 935.5001220703125 72.11073303222656 935.5001220703125 57.67639541625977 C 935.5001220703125 43.24206161499023 936.2352294921875 28.68473052978516 937.6849975585938 14.40850734710693 C 939.1136474609375 0.3402852118015289 941.2711181640625 -13.79649257659912 944.0975341796875 -27.60904884338379 C 946.8873291015625 -41.24204635620117 950.3956909179688 -54.88660430908203 954.5252075195312 -68.16371154785156 C 958.6082153320312 -81.29104614257812 963.3958740234375 -94.371826171875 968.7553100585938 -107.0427169799805 C 979.3609008789062 -132.1173858642578 992.4879760742188 -156.3021545410156 1007.771911621094 -178.9251556396484 C 1022.91064453125 -201.3337097167969 1040.29638671875 -222.4052734375 1059.445922851562 -241.5544891357422 C 1078.594848632812 -260.7037048339844 1099.66650390625 -278.0893859863281 1122.075073242188 -293.2283935546875 C 1144.697265625 -308.5118408203125 1168.8818359375 -321.6389465332031 1193.95751953125 -332.2450561523438 C 1206.626953125 -337.6038208007812 1219.7080078125 -342.3914794921875 1232.837036132812 -346.4751586914062 C 1246.114501953125 -350.6048278808594 1259.759155273438 -354.1131591796875 1273.3916015625 -356.9027099609375 C 1287.201538085938 -359.7288208007812 1301.33837890625 -361.8862609863281 1315.409057617188 -363.3152770996094 C 1329.685180664062 -364.7650451660156 1344.242553710938 -365.5001525878906 1358.676879882812 -365.5001525878906 C 1373.111206054688 -365.5001525878906 1387.668579101562 -364.7650451660156 1401.94482421875 -363.3152770996094 C 1416.01318359375 -361.88671875 1430.150024414062 -359.7292785644531 1443.962280273438 -356.9027099609375 C 1457.5947265625 -354.1131591796875 1471.2392578125 -350.6048278808594 1484.516967773438 -346.4751586914062 C 1497.646606445312 -342.3913879394531 1510.727416992188 -337.6036071777344 1523.396240234375 -332.2450561523438 C 1548.4716796875 -321.6390380859375 1572.656494140625 -308.5119323730469 1595.278686523438 -293.2283935546875 C 1617.687133789062 -278.089599609375 1638.758666992188 -260.7040405273438 1657.907958984375 -241.5544891357422 C 1677.057373046875 -222.4054870605469 1694.442993164062 -201.3339385986328 1709.582153320312 -178.9251556396484 C 1724.866333007812 -156.3014984130859 1737.993286132812 -132.1168212890625 1748.598510742188 -107.0427169799805 C 1753.957885742188 -94.37194061279297 1758.74560546875 -81.29104614257812 1762.82861328125 -68.16360473632812 C 1766.958251953125 -54.88660430908203 1770.466552734375 -41.24204635620117 1773.25634765625 -27.60904884338379 C 1776.082763671875 -13.79704856872559 1778.240356445312 0.3396185338497162 1779.6689453125 14.40850734710693 C 1781.11865234375 28.68506240844727 1781.853759765625 43.24250793457031 1781.853759765625 57.67639541625977 C 1781.853759765625 72.11039733886719 1781.11865234375 86.66783905029297 1779.6689453125 100.9445037841797 C 1778.240356445312 115.0133972167969 1776.082763671875 129.1500701904297 1773.25634765625 142.9620666503906 C 1770.466552734375 156.5952911376953 1766.958251953125 170.2399444580078 1762.82861328125 183.5170593261719 C 1758.745239257812 196.6455078125 1753.95751953125 209.7263946533203 1748.598510742188 222.3962860107422 C 1737.993408203125 247.4702911376953 1724.866333007812 271.6551818847656 1709.582153320312 294.279052734375 C 1694.442993164062 316.6878356933594 1677.057373046875 337.7593994140625 1657.907958984375 356.9083862304688 C 1638.758056640625 376.0586242675781 1617.686401367188 393.4442749023438 1595.278686523438 408.5823974609375 C 1572.65576171875 423.8661804199219 1548.471069335938 436.993408203125 1523.396240234375 447.5991821289062 C 1510.72509765625 452.95849609375 1497.644165039062 457.7462768554688 1484.516845703125 461.8292846679688 C 1471.238525390625 465.9591674804688 1457.593994140625 469.4674987792969 1443.962280273438 472.2568359375 C 1430.149169921875 475.0834045410156 1416.012451171875 477.240966796875 1401.94482421875 478.6694946289062 C 1387.668579101562 480.1192932128906 1373.111206054688 480.8544006347656 1358.676879882812 480.8544006347656 Z M 1358.676879882812 -278.5001525878906 C 1335.868041992188 -278.5001525878906 1313.073364257812 -276.2021484375 1290.926147460938 -271.6700439453125 C 1269.341674804688 -267.2532653808594 1248.1103515625 -260.6627197265625 1227.821655273438 -252.0813751220703 C 1207.901611328125 -243.6559295654297 1188.688842773438 -233.2276000976562 1170.717163085938 -221.0860443115234 C 1152.916748046875 -209.0604858398438 1136.177490234375 -195.2493743896484 1120.964111328125 -180.0361633300781 C 1105.751342773438 -164.823486328125 1091.940185546875 -148.0841522216797 1079.914306640625 -130.2833862304688 C 1067.7734375 -112.3127136230469 1057.345092773438 -93.09993743896484 1048.9189453125 -73.17860412597656 C 1040.337768554688 -52.89060211181641 1033.7470703125 -31.65927124023438 1029.330200195312 -10.07427024841309 C 1024.798217773438 12.07328510284424 1022.500305175781 34.86795043945312 1022.500305175781 57.67639541625977 C 1022.500305175781 80.48495483398438 1024.798217773438 103.2797317504883 1029.330200195312 125.4275054931641 C 1033.746948242188 147.0113983154297 1040.33740234375 168.2429504394531 1048.9189453125 188.5322875976562 C 1057.345092773438 208.4533996582031 1067.7734375 227.6662902832031 1079.914306640625 245.6371765136719 C 1091.940551757812 263.4382934570312 1105.751708984375 280.1776123046875 1120.964111328125 295.3901672363281 C 1136.176391601562 310.6025085449219 1152.915649414062 324.4136047363281 1170.717163085938 336.440185546875 C 1188.687622070312 348.5809631347656 1207.900390625 359.00927734375 1227.821655273438 367.4356079101562 C 1248.1103515625 376.0169372558594 1269.341674804688 382.6075134277344 1290.926147460938 387.0242919921875 C 1313.073608398438 391.5561828613281 1335.868286132812 393.8540649414062 1358.676879882812 393.8540649414062 C 1381.485473632812 393.8540649414062 1404.280151367188 391.5561828613281 1426.427612304688 387.0242919921875 C 1448.012573242188 382.6073913574219 1469.244018554688 376.016845703125 1489.5322265625 367.4356079101562 C 1509.45263671875 359.0096130371094 1528.66552734375 348.581298828125 1546.636962890625 336.440185546875 C 1564.438598632812 324.4135131835938 1581.177734375 310.602294921875 1596.389770507812 295.3901672363281 C 1611.602416992188 280.1775207519531 1625.413696289062 263.4381713867188 1637.439819335938 245.6371765136719 C 1649.581420898438 227.6650695800781 1660.009643554688 208.4521789550781 1668.43505859375 188.5322875976562 C 1677.01611328125 168.2446136474609 1683.606689453125 147.0130615234375 1688.023681640625 125.4275054931641 C 1692.5556640625 103.2799530029297 1694.853637695312 80.48517608642578 1694.853637695312 57.67639541625977 C 1694.853637695312 34.86761856079102 1692.5556640625 12.07306289672852 1688.023681640625 -10.07427024841309 C 1683.606689453125 -31.65982627868652 1677.015991210938 -52.89115905761719 1668.43505859375 -73.17860412597656 C 1660.009765625 -93.0982666015625 1649.581420898438 -112.3111572265625 1637.439819335938 -130.2833862304688 C 1625.413696289062 -148.0844879150391 1611.602416992188 -164.8237152099609 1596.389770507812 -180.0361633300781 C 1581.176513671875 -195.2493743896484 1564.437255859375 -209.0606079101562 1546.636962890625 -221.0860443115234 C 1528.664916992188 -233.2277221679688 1509.4521484375 -243.6560516357422 1489.5322265625 -252.0813751220703 C 1469.244018554688 -260.66259765625 1448.012573242188 -267.253173828125 1426.427612304688 -271.6700439453125 C 1404.280395507812 -276.2021484375 1381.48583984375 -278.5001525878906 1358.676879882812 -278.5001525878906 Z" stroke="none"/><path d="M 1358.676879882812 480.3544006347656 C 1373.094360351562 480.3544006347656 1387.634765625 479.6201782226562 1401.894287109375 478.1720581054688 C 1415.945190429688 476.7451782226562 1430.065185546875 474.5901794433594 1443.862060546875 471.7670593261719 C 1457.4775390625 468.98095703125 1471.105834960938 465.4767150878906 1484.368408203125 461.3518371582031 C 1497.480102539062 457.2736206054688 1510.545288085938 452.4917297363281 1523.201416015625 447.1387329101562 C 1548.24658203125 436.54541015625 1572.402709960938 423.433837890625 1594.998779296875 408.1680603027344 C 1617.380249023438 393.0477294921875 1638.427001953125 375.6826171875 1657.554443359375 356.5548400878906 C 1676.681274414062 337.4284057617188 1694.046508789062 316.3816223144531 1709.167724609375 293.9991760253906 C 1724.433959960938 271.4020690917969 1737.54541015625 247.2458343505859 1748.138061523438 222.2015075683594 C 1753.49072265625 209.5467224121094 1758.272705078125 196.4813995361328 1762.351196289062 183.3685150146484 C 1766.475830078125 170.1072845458984 1769.97998046875 156.4788360595703 1772.7666015625 142.8618469238281 C 1775.589599609375 129.0661773681641 1777.744506835938 114.946174621582 1779.171508789062 100.8940658569336 C 1780.619506835938 86.63406372070312 1781.353759765625 72.093505859375 1781.353759765625 57.67639541625977 C 1781.353759765625 43.25928497314453 1780.619506835938 28.71884155273438 1779.171508789062 14.45895195007324 C 1777.744506835938 0.4068407714366913 1775.589599609375 -13.71315956115723 1772.7666015625 -27.50882530212402 C 1769.97998046875 -41.12560272216797 1766.475830078125 -54.75393676757812 1762.351196289062 -68.01515960693359 C 1758.27294921875 -81.12693786621094 1753.490966796875 -94.19216156005859 1748.138061523438 -106.8479385375977 C 1737.54541015625 -131.8922729492188 1724.433959960938 -156.0483856201172 1709.167724609375 -178.645263671875 C 1694.046508789062 -201.0277099609375 1676.681274414062 -222.0744934082031 1657.554443359375 -241.2009429931641 C 1638.427612304688 -260.3279418945312 1617.380859375 -277.6931457519531 1594.998779296875 -292.8140563964844 C 1572.403198242188 -308.0794982910156 1548.2470703125 -321.191162109375 1523.201416015625 -331.7846069335938 C 1510.547729492188 -337.1368408203125 1497.482299804688 -341.918701171875 1484.368408203125 -345.9977111816406 C 1471.106567382812 -350.1223754882812 1457.478271484375 -353.6266174316406 1443.862060546875 -356.4129333496094 C 1430.066162109375 -359.2360534667969 1415.946166992188 -361.3909301757812 1401.894287109375 -362.8178405761719 C 1387.634765625 -364.2659301757812 1373.094360351562 -365.0001525878906 1358.676879882812 -365.0001525878906 C 1344.259399414062 -365.0001525878906 1329.718994140625 -364.2659301757812 1315.45947265625 -362.8178405761719 C 1301.405395507812 -361.3905029296875 1287.285400390625 -359.235595703125 1273.491821289062 -356.4129333496094 C 1259.875610351562 -353.6266174316406 1246.247192382812 -350.1223754882812 1232.985473632812 -345.9977111816406 C 1219.8720703125 -341.9189453125 1206.806762695312 -337.1369323730469 1194.15234375 -331.7846069335938 C 1169.1064453125 -321.1909484863281 1144.950317382812 -308.0793762207031 1122.35498046875 -292.8140563964844 C 1099.97265625 -277.6928405761719 1078.926025390625 -260.3277282714844 1059.799438476562 -241.2009429931641 C 1040.67236328125 -222.0741577148438 1023.307250976562 -201.0274963378906 1008.186218261719 -178.645263671875 C 992.9203491210938 -156.0490417480469 979.8087768554688 -131.8929443359375 969.2157592773438 -106.8479385375977 C 963.86279296875 -94.19204711914062 959.0807495117188 -81.12682342529297 955.002685546875 -68.01515960693359 C 950.8779907226562 -54.75393676757812 947.3739013671875 -41.12560272216797 944.5873413085938 -27.50882530212402 C 941.7643432617188 -13.71260356903076 939.6094360351562 0.4073963165283203 938.1824340820312 14.45895195007324 C 936.7343139648438 28.71850776672363 936.0001220703125 43.25895309448242 936.0001220703125 57.67639541625977 C 936.0001220703125 72.09394836425781 936.7343139648438 86.6343994140625 938.1824340820312 100.8940658569336 C 939.6094360351562 114.9458389282227 941.7643432617188 129.0658416748047 944.5873413085938 142.8618469238281 C 947.3739013671875 156.4788360595703 950.8779907226562 170.1072845458984 955.002685546875 183.3685150146484 C 959.0814208984375 196.482177734375 963.8633422851562 209.5473937988281 969.2157592773438 222.2015075683594 C 979.8092041015625 247.2471771240234 992.9207763671875 271.4033813476562 1008.186218261719 293.9991760253906 C 1023.307434082031 316.3816223144531 1040.672607421875 337.4284057617188 1059.799438476562 356.5548400878906 C 1078.926635742188 375.6822814941406 1099.973388671875 393.0475158691406 1122.35498046875 408.1680603027344 C 1144.951171875 423.433837890625 1169.107177734375 436.54541015625 1194.15234375 447.1387329101562 C 1206.80908203125 452.491943359375 1219.874389648438 457.2739562988281 1232.985473632812 461.3518371582031 C 1246.248046875 465.4767150878906 1259.876220703125 468.98095703125 1273.491821289062 471.7670593261719 C 1287.287475585938 474.5899658203125 1301.407348632812 476.7449645996094 1315.45947265625 478.1720581054688 C 1329.718994140625 479.6201782226562 1344.259399414062 480.3544006347656 1358.676879882812 480.3544006347656 M 1358.676879882812 -279.0001525878906 C 1381.519287109375 -279.0001525878906 1404.347778320312 -276.6986999511719 1426.52783203125 -272.1598205566406 C 1448.145141601562 -267.7363891601562 1469.408325195312 -261.1359252929688 1489.72705078125 -252.5418243408203 C 1509.676513671875 -244.1039428710938 1528.91796875 -233.6600494384766 1546.916870117188 -221.5003814697266 C 1564.743530273438 -209.4570465087891 1581.507568359375 -195.62548828125 1596.743286132812 -180.3897094726562 C 1611.978515625 -165.1547088623047 1625.810180664062 -148.3907165527344 1637.854125976562 -130.5632629394531 C 1650.013916015625 -112.5642700195312 1660.457641601562 -93.32282257080078 1668.895385742188 -73.37338256835938 C 1677.489501953125 -53.05560302734375 1684.08984375 -31.79238128662109 1688.513427734375 -10.17449283599854 C 1693.052368164062 12.00572967529297 1695.353637695312 34.83406448364258 1695.353637695312 57.67639541625977 C 1695.353637695312 80.51883697509766 1693.052368164062 103.347282409668 1688.513427734375 125.5277328491211 C 1684.08984375 147.1456146240234 1677.489501953125 168.4089508056641 1668.895385742188 188.7270660400391 C 1660.45751953125 208.6767272949219 1650.013793945312 227.9182891845703 1637.854125976562 245.9170684814453 C 1625.81005859375 263.7445068359375 1611.978393554688 280.5086059570312 1596.743286132812 295.7437438964844 C 1581.5087890625 310.9783935546875 1564.744750976562 324.8099670410156 1546.916870117188 336.8544921875 C 1528.918701171875 349.0137329101562 1509.67724609375 359.4576110839844 1489.72705078125 367.8960571289062 C 1469.408325195312 376.4901733398438 1448.145141601562 383.0906066894531 1426.52783203125 387.5140686035156 C 1404.347412109375 392.052734375 1381.51904296875 394.3540649414062 1358.676879882812 394.3540649414062 C 1335.834838867188 394.3540649414062 1313.00634765625 392.052734375 1290.825927734375 387.5140686035156 C 1269.209106445312 383.0907287597656 1247.945922851562 376.4902954101562 1227.626831054688 367.8960571289062 C 1207.675903320312 359.457275390625 1188.434448242188 349.0133972167969 1170.437255859375 336.8544921875 C 1152.609497070312 324.8101806640625 1135.845336914062 310.978515625 1120.610595703125 295.7437438964844 C 1105.375610351562 280.5087280273438 1091.544067382812 263.74462890625 1079.5 245.9170684814453 C 1067.341064453125 227.9194030761719 1056.897216796875 208.6779479980469 1048.45849609375 188.7270660400391 C 1039.864135742188 168.4072875976562 1033.263671875 147.1439514160156 1028.840454101562 125.5277328491211 C 1024.301635742188 103.3469543457031 1022.000305175781 80.51850891113281 1022.000305175781 57.67639541625977 C 1022.000305175781 34.83439636230469 1024.301635742188 12.00606346130371 1028.840454101562 -10.17449283599854 C 1033.263916015625 -31.79182624816895 1039.864379882812 -53.05504989624023 1048.45849609375 -73.37338256835938 C 1056.897216796875 -93.32437896728516 1067.341064453125 -112.5659332275391 1079.5 -130.5632629394531 C 1091.543701171875 -148.3904876708984 1105.375244140625 -165.1544952392578 1120.610595703125 -180.3897094726562 C 1135.846313476562 -195.6253814697266 1152.610473632812 -209.4570465087891 1170.437255859375 -221.5003814697266 C 1188.435668945312 -233.6600494384766 1207.677124023438 -244.1038208007812 1227.626831054688 -252.5418243408203 C 1247.945922851562 -261.1360473632812 1269.209106445312 -267.7364807128906 1290.825927734375 -272.1598205566406 C 1313.005981445312 -276.6986999511719 1335.83447265625 -279.0001525878906 1358.676879882812 -279.0001525878906 M 1358.676879882812 481.3544006347656 C 1344.225463867188 481.3544006347656 1329.651000976562 480.618408203125 1315.3583984375 479.1669616699219 C 1301.272583007812 477.7363891601562 1287.119262695312 475.5762939453125 1273.291381835938 472.7467346191406 C 1259.641967773438 469.9537353515625 1245.981201171875 466.4410705566406 1232.6884765625 462.3067321777344 C 1219.54638671875 458.2191772460938 1206.449951171875 453.4258422851562 1193.762817382812 448.0597229003906 C 1168.658447265625 437.44140625 1144.444946289062 424.2987365722656 1121.795166015625 408.9967346191406 C 1099.36083984375 393.8405151367188 1078.264404296875 376.4342956542969 1059.09228515625 357.261962890625 C 1039.920166015625 338.0901794433594 1022.514221191406 316.9938354492188 1007.357543945312 294.5589599609375 C 992.055908203125 271.9095153808594 978.913330078125 247.6960601806641 968.2947998046875 222.591064453125 C 962.929443359375 209.9064025878906 958.1361083984375 196.8099517822266 954.0477905273438 183.6655120849609 C 949.913330078125 170.3726196289062 946.4007568359375 156.7117309570312 943.607666015625 143.0622863769531 C 940.7781372070312 129.2342834472656 938.6179809570312 115.0808410644531 937.1875610351562 100.9950637817383 C 935.736083984375 86.702392578125 935.0001220703125 72.12795257568359 935.0001220703125 57.67639541625977 C 935.0001220703125 43.22495269775391 935.736083984375 28.6505069732666 937.1875610351562 14.35795211791992 C 938.6179809570312 0.2721740901470184 940.7781372070312 -13.88115882873535 943.607666015625 -27.70927047729492 C 946.4007568359375 -41.35849380493164 949.913330078125 -55.01927185058594 954.0477905273438 -68.31215667724609 C 958.1358642578125 -81.45582580566406 962.9293212890625 -94.55216217041016 968.2947998046875 -107.2374954223633 C 978.9130859375 -132.3422698974609 992.0557861328125 -156.5556030273438 1007.357543945312 -179.2050476074219 C 1022.514221191406 -201.6400451660156 1039.920166015625 -222.7362670898438 1059.09228515625 -241.9080505371094 C 1078.264282226562 -261.0802612304688 1099.36083984375 -278.4862670898438 1121.795166015625 -293.6427001953125 C 1144.4443359375 -308.9443664550781 1168.65771484375 -322.0869445800781 1193.762817382812 -332.7055969238281 C 1206.447631835938 -338.0708312988281 1219.544067382812 -342.8641662597656 1232.6884765625 -346.9526062011719 C 1245.981567382812 -351.0870361328125 1259.642333984375 -354.599609375 1273.291381835938 -357.3926086425781 C 1287.1181640625 -360.2220458984375 1301.271606445312 -362.3820495605469 1315.3583984375 -363.8127136230469 C 1329.651000976562 -365.26416015625 1344.225463867188 -366.0001525878906 1358.676879882812 -366.0001525878906 C 1373.128295898438 -366.0001525878906 1387.702758789062 -365.26416015625 1401.995361328125 -363.8127136230469 C 1416.082275390625 -362.3822631835938 1430.235717773438 -360.2220458984375 1444.0625 -357.3926086425781 C 1457.71142578125 -354.599609375 1471.372192382812 -351.0870361328125 1484.665405273438 -346.9526062011719 C 1497.810180664062 -342.8640441894531 1510.906616210938 -338.0707092285156 1523.590942382812 -332.7055969238281 C 1548.696166992188 -322.0869445800781 1572.909423828125 -308.9443664550781 1595.55859375 -293.6427001953125 C 1617.992919921875 -278.4864807128906 1639.089233398438 -261.0805969238281 1658.261596679688 -241.9080505371094 C 1677.433837890625 -222.7361602783203 1694.839721679688 -201.6398315429688 1709.996459960938 -179.2050476074219 C 1725.298583984375 -156.554931640625 1738.441284179688 -132.3414916992188 1749.05908203125 -107.2374954223633 C 1754.424926757812 -94.55126953125 1759.21826171875 -81.45494079589844 1763.30615234375 -68.31215667724609 C 1767.440551757812 -55.01927185058594 1770.953125 -41.35849380493164 1773.746215820312 -27.70927047729492 C 1776.57568359375 -13.88238143920898 1778.73583984375 0.2710629999637604 1780.16650390625 14.35795211791992 C 1781.617797851562 28.6505069732666 1782.353759765625 43.22495269775391 1782.353759765625 57.67639541625977 C 1782.353759765625 72.12795257568359 1781.617797851562 86.702392578125 1780.16650390625 100.9950637817383 C 1778.73583984375 115.0819549560547 1776.57568359375 129.2353973388672 1773.746215820312 143.0622863769531 C 1770.953125 156.7117309570312 1767.440551757812 170.3726196289062 1763.30615234375 183.6655120849609 C 1759.218139648438 196.808837890625 1754.4248046875 209.9053955078125 1749.05908203125 222.591064453125 C 1738.441040039062 247.6956176757812 1725.29833984375 271.9089660644531 1709.996459960938 294.5589599609375 C 1694.839721679688 316.9937438964844 1677.433837890625 338.0900573730469 1658.261596679688 357.261962890625 C 1639.089111328125 376.4346313476562 1617.992797851562 393.8407287597656 1595.55859375 408.9967346191406 C 1572.908813476562 424.2987365722656 1548.6953125 437.44140625 1523.590942382812 448.0597229003906 C 1510.904296875 453.4256286621094 1497.807861328125 458.2189636230469 1484.665405273438 462.3067321777344 C 1471.37255859375 466.4410705566406 1457.711791992188 469.9537353515625 1444.0625 472.7467346191406 C 1430.234497070312 475.5762939453125 1416.0810546875 477.7365112304688 1401.995361328125 479.1669616699219 C 1387.702758789062 480.618408203125 1373.128295898438 481.3544006347656 1358.676879882812 481.3544006347656 Z M 1358.676879882812 -278.0001525878906 C 1335.901611328125 -278.0001525878906 1313.140747070312 -275.7055969238281 1291.0263671875 -271.1801452636719 C 1269.47412109375 -266.7700500488281 1248.2744140625 -260.1892700195312 1228.016479492188 -251.6208190917969 C 1208.12646484375 -243.2081604003906 1188.942260742188 -232.7953796386719 1170.996948242188 -220.6717224121094 C 1153.22216796875 -208.6634979248047 1136.5078125 -194.8726043701172 1121.317626953125 -179.6826019287109 C 1106.12744140625 -164.4924926757812 1092.336669921875 -147.7779388427734 1080.32861328125 -130.0034942626953 C 1068.20556640625 -112.0591583251953 1057.792724609375 -92.87482452392578 1049.37939453125 -72.98382568359375 C 1040.81103515625 -52.72604751586914 1034.230346679688 -31.52649307250977 1029.820068359375 -9.974047660827637 C 1025.294799804688 12.14095211029053 1023.000305175781 34.90195083618164 1023.000305175781 57.67639541625977 C 1023.000305175781 80.45095062255859 1025.294799804688 103.2120666503906 1029.820068359375 125.3272857666016 C 1034.230346679688 146.8799591064453 1040.811279296875 168.0795135498047 1049.37939453125 188.3375091552734 C 1057.792724609375 208.2282867431641 1068.205444335938 227.4125061035156 1080.32861328125 245.3572845458984 C 1092.337280273438 263.1322937011719 1106.1279296875 279.8467407226562 1121.317626953125 295.03662109375 C 1136.507568359375 310.2265014648438 1153.222045898438 324.0171813964844 1170.996948242188 336.0258483886719 C 1188.941284179688 348.1489562988281 1208.125610351562 358.5617370605469 1228.016479492188 366.9750671386719 C 1248.2744140625 375.5435180664062 1269.47412109375 382.1242980957031 1291.0263671875 386.5343933105469 C 1313.14111328125 391.0596313476562 1335.902099609375 393.3540649414062 1358.676879882812 393.3540649414062 C 1381.45166015625 393.3540649414062 1404.212646484375 391.0596313476562 1426.327392578125 386.5343933105469 C 1447.8798828125 382.1241760253906 1469.079467773438 375.5435180664062 1489.33740234375 366.9750671386719 C 1509.228271484375 358.5617370605469 1528.412353515625 348.1489562988281 1546.357055664062 336.0258483886719 C 1564.131958007812 324.0171813964844 1580.846435546875 310.2265014648438 1596.036254882812 295.03662109375 C 1611.22607421875 279.8467407226562 1625.016845703125 263.1322937011719 1637.025390625 245.3572845458984 C 1649.149169921875 227.41162109375 1659.561889648438 208.2274017333984 1667.974487304688 188.3375091552734 C 1676.542724609375 168.0800628662109 1683.123413085938 146.8804016113281 1687.533813476562 125.3272857666016 C 1692.05908203125 103.2127304077148 1694.353637695312 80.45172882080078 1694.353637695312 57.67639541625977 C 1694.353637695312 34.90117263793945 1692.05908203125 12.14028549194336 1687.533813476562 -9.974047660827637 C 1683.123413085938 -31.52704811096191 1676.542724609375 -52.72660446166992 1667.974487304688 -72.98382568359375 C 1659.561767578125 -92.87393951416016 1649.14892578125 -112.0582733154297 1637.025390625 -130.0034942626953 C 1625.017333984375 -147.7779388427734 1611.2265625 -164.4924926757812 1596.036254882812 -179.6826019287109 C 1580.84619140625 -194.8726043701172 1564.1318359375 -208.6634979248047 1546.357055664062 -220.6717224121094 C 1528.41162109375 -232.7953796386719 1509.227416992188 -243.2081604003906 1489.33740234375 -251.6208190917969 C 1469.079467773438 -260.1892700195312 1447.8798828125 -266.7699279785156 1426.327392578125 -271.1801452636719 C 1404.213012695312 -275.7055969238281 1381.4521484375 -278.0001525878906 1358.676879882812 -278.0001525878906 Z" stroke="none"/></g><path d="M388.764,329.861H82.465a11.815,11.815,0,0,0-11.781,11.781V365.2a11.815,11.815,0,0,0,11.781,11.781h306.3A11.815,11.815,0,0,0,400.545,365.2V341.641A11.815,11.815,0,0,0,388.764,329.861ZM435.887,94.246a35.351,35.351,0,0,0-35.342,35.342,34.625,34.625,0,0,0,3.24,14.579l-53.308,31.955a23.53,23.53,0,0,1-32.544-8.541l-60.008-105a35.343,35.343,0,1,0-44.62,0l-60.008,105a23.546,23.546,0,0,1-32.544,8.541L67.518,144.167A35.331,35.331,0,1,0,35.342,164.93a36.09,36.09,0,0,0,5.669-.589L94.246,306.3H376.984l53.234-141.958a36.092,36.092,0,0,0,5.669.589,35.342,35.342,0,1,0,0-70.684Z" transform="translate(659 1336.016)"/></g></svg>