<?xml version="1.0" standalone="no"?>
<svg
  width="200"
  height="200"
  viewBox="0 0 600 600"
  xmlns="http://www.w3.org/2000/svg"

>
  <g transform="translate(300,300)">
    <path d="M115.8,-123.3C130.9,-125.3,110.8,-70.7,93.8,-35.9C76.9,-1.2,63.1,13.7,63.9,60C64.7,106.4,80.1,184.3,66.1,195.4C52.1,206.4,8.8,150.7,-34,122.5C-76.7,94.3,-118.9,93.6,-150.6,71.2C-182.2,48.8,-203.4,4.6,-205.8,-45.7C-208.2,-96.1,-191.8,-152.6,-154.4,-146.7C-117,-140.8,-58.5,-72.4,-4.1,-67.5C50.4,-62.7,100.7,-121.3,115.8,-123.3Z" fill="#8860d0" />
  </g>
</svg>
    