<svg xmlns="http://www.w3.org/2000/svg" width="847.354" height="847.354" viewBox="0 0 847.354 847.354">
  <g id="Symbol_7_1" data-name="Symbol 7 – 1" transform="translate(-471 -1101)">
    <circle id="Ellipse_7" data-name="Ellipse 7" cx="423.677" cy="423.677" r="423.677" transform="translate(471 1101)" opacity="0.997"/>
    <circle id="Ellipse_8" data-name="Ellipse 8" cx="335.677" cy="335.677" r="335.677" transform="translate(560 1190)" fill="#fff" opacity="0.997"/>
    <path id="crown-solid_1_" data-name="crown-solid (1)" d="M388.764,329.861H82.465a11.815,11.815,0,0,0-11.781,11.781V365.2a11.815,11.815,0,0,0,11.781,11.781h306.3A11.815,11.815,0,0,0,400.545,365.2V341.641A11.815,11.815,0,0,0,388.764,329.861ZM435.887,94.246a35.351,35.351,0,0,0-35.342,35.342,34.625,34.625,0,0,0,3.24,14.579l-53.308,31.955a23.53,23.53,0,0,1-32.544-8.541l-60.008-105a35.343,35.343,0,1,0-44.62,0l-60.008,105a23.546,23.546,0,0,1-32.544,8.541L67.518,144.167A35.331,35.331,0,1,0,35.342,164.93a36.09,36.09,0,0,0,5.669-.589L94.246,306.3H376.984l53.234-141.958a36.092,36.092,0,0,0,5.669.589,35.342,35.342,0,1,0,0-70.684Z" transform="translate(659 1336.016)"/>
  </g>
</svg>
